HIERARCHY
ROOT Hips
{
	OFFSET 0.000000 100.481300 0.000000
	CHANNELS 6 Xposition Yposition Zposition Xrotation Yrotation Zrotation
	JOINT Spine
	{
		OFFSET -0.279200 12.230698 -2.892100
		CHANNELS 3 Xrotation Yrotation Zrotation
		JOINT Spine1
		{
			OFFSET -0.325700 14.269203 -3.374200
			CHANNELS 3 Xrotation Yrotation Zrotation
			JOINT Spine2
			{
				OFFSET -0.372300 16.307602 -0.352600
				CHANNELS 3 Xrotation Yrotation Zrotation
				JOINT Neck
				{
					OFFSET -0.418800 17.814194 8.416900
					CHANNELS 3 Xrotation Yrotation Zrotation
					JOINT Head
					{
						OFFSET 0.000000 7.031097 3.806800
						CHANNELS 3 Xrotation Yrotation Zrotation
						JOINT HeadTop_End
						{
							OFFSET 0.000000 24.646606 12.978600
							CHANNELS 3 Xrotation Yrotation Zrotation
							End Site
							{
								OFFSET 0.000000 27.854965 0.000000
							}
						}
					}
				}
				JOINT LeftShoulder
				{
					OFFSET 16.952999 14.495407 -7.737500
					CHANNELS 3 Xrotation Yrotation Zrotation
					JOINT LeftArm
					{
						OFFSET 9.308998 -2.777710 0.208600
						CHANNELS 3 Xrotation Yrotation Zrotation
						JOINT LeftForeArm
						{
							OFFSET 29.972298 0.000000 0.000000
							CHANNELS 3 Xrotation Yrotation Zrotation
							JOINT LeftHand
							{
								OFFSET 26.026505 0.000000 0.000000
								CHANNELS 3 Xrotation Yrotation Zrotation
								JOINT LeftHandThumb1
								{
									OFFSET 12.240501 -7.147949 9.207150
									CHANNELS 3 Xrotation Yrotation Zrotation
									JOINT LeftHandThumb2
									{
										OFFSET 4.138618 -2.389435 2.389433
										CHANNELS 3 Xrotation Yrotation Zrotation
										JOINT LeftHandThumb3
										{
											OFFSET 2.726913 -1.574387 1.574386
											CHANNELS 3 Xrotation Yrotation Zrotation
											JOINT LeftHandThumb4
											{
												OFFSET 3.941010 -2.275345 2.275342
												CHANNELS 3 Xrotation Yrotation Zrotation
												End Site
												{
													OFFSET -0.005798 5.087799 0.009903
												}
											}
										}
									}
								}
								JOINT LeftHandIndex1
								{
									OFFSET 24.424698 -1.985611 5.953459
									CHANNELS 3 Xrotation Yrotation Zrotation
									JOINT LeftHandIndex2
									{
										OFFSET 6.426697 0.000000 0.000000
										CHANNELS 3 Xrotation Yrotation Zrotation
										JOINT LeftHandIndex3
										{
											OFFSET 5.337898 0.000000 0.000000
											CHANNELS 3 Xrotation Yrotation Zrotation
											JOINT LeftHandIndex4
											{
												OFFSET 4.409401 0.000000 0.000000
												CHANNELS 3 Xrotation Yrotation Zrotation
												End Site
												{
													OFFSET 0.000000 4.409363 0.014373
												}
											}
										}
									}
								}
								JOINT LeftHandMiddle1
								{
									OFFSET 23.810104 0.000000 0.000000
									CHANNELS 3 Xrotation Yrotation Zrotation
									JOINT LeftHandMiddle2
									{
										OFFSET 7.176498 0.000000 0.000000
										CHANNELS 3 Xrotation Yrotation Zrotation
										JOINT LeftHandMiddle3
										{
											OFFSET 6.774902 0.000000 0.000000
											CHANNELS 3 Xrotation Yrotation Zrotation
											JOINT LeftHandMiddle4
											{
												OFFSET 5.403328 0.000000 0.000000
												CHANNELS 3 Xrotation Yrotation Zrotation
												End Site
												{
													OFFSET -0.027702 5.403244 0.017414
												}
											}
										}
									}
								}
								JOINT LeftHandRing1
								{
									OFFSET 22.908401 -0.839279 -6.020567
									CHANNELS 3 Xrotation Yrotation Zrotation
									JOINT LeftHandRing2
									{
										OFFSET 6.337502 0.000000 0.000000
										CHANNELS 3 Xrotation Yrotation Zrotation
										JOINT LeftHandRing3
										{
											OFFSET 5.779297 0.000000 0.000000
											CHANNELS 3 Xrotation Yrotation Zrotation
											JOINT LeftHandRing4
											{
												OFFSET 4.965698 0.000000 0.000000
												CHANNELS 3 Xrotation Yrotation Zrotation
												End Site
												{
													OFFSET 0.000000 4.965668 0.016186
												}
											}
										}
									}
								}
								JOINT LeftHandPinky1
								{
									OFFSET 20.037003 -1.530319 -10.950146
									CHANNELS 3 Xrotation Yrotation Zrotation
									JOINT LeftHandPinky2
									{
										OFFSET 5.254700 0.000000 0.000000
										CHANNELS 3 Xrotation Yrotation Zrotation
										JOINT LeftHandPinky3
										{
											OFFSET 4.810204 0.000000 0.000000
											CHANNELS 3 Xrotation Yrotation Zrotation
											JOINT LeftHandPinky4
											{
												OFFSET 3.647202 0.000000 0.000000
												CHANNELS 3 Xrotation Yrotation Zrotation
												End Site
												{
													OFFSET 0.000000 3.647186 0.011889
												}
											}
										}
									}
								}
							}
						}
					}
				}
				JOINT RightShoulder
				{
					OFFSET -15.141001 14.495407 -7.737500
					CHANNELS 3 Xrotation Yrotation Zrotation
					JOINT RightArm
					{
						OFFSET -9.308998 -2.777710 0.208500
						CHANNELS 3 Xrotation Yrotation Zrotation
						JOINT RightForeArm
						{
							OFFSET -29.972300 0.000000 0.000000
							CHANNELS 3 Xrotation Yrotation Zrotation
							JOINT RightHand
							{
								OFFSET -26.026505 0.000000 0.000000
								CHANNELS 3 Xrotation Yrotation Zrotation
								JOINT RightHandThumb1
								{
									OFFSET -12.240601 -7.148026 9.207092
									CHANNELS 3 Xrotation Yrotation Zrotation
									JOINT RightHandThumb2
									{
										OFFSET -4.138618 -2.389435 2.389433
										CHANNELS 3 Xrotation Yrotation Zrotation
										JOINT RightHandThumb3
										{
											OFFSET -2.726974 -1.574417 1.574421
											CHANNELS 3 Xrotation Yrotation Zrotation
											JOINT RightHandThumb4
											{
												OFFSET -3.941010 -2.275345 2.275343
												CHANNELS 3 Xrotation Yrotation Zrotation
												End Site
												{
													OFFSET 0.005814 5.087799 0.009927
												}
											}
										}
									}
								}
								JOINT RightHandIndex1
								{
									OFFSET -24.424698 -1.985657 5.953444
									CHANNELS 3 Xrotation Yrotation Zrotation
									JOINT RightHandIndex2
									{
										OFFSET -6.426697 0.000000 0.000000
										CHANNELS 3 Xrotation Yrotation Zrotation
										JOINT RightHandIndex3
										{
											OFFSET -5.337898 0.000000 0.000000
											CHANNELS 3 Xrotation Yrotation Zrotation
											JOINT RightHandIndex4
											{
												OFFSET -4.409401 0.000000 0.000000
												CHANNELS 3 Xrotation Yrotation Zrotation
												End Site
												{
													OFFSET 0.000000 4.409363 0.014408
												}
											}
										}
									}
								}
								JOINT RightHandMiddle1
								{
									OFFSET -23.810097 0.000000 0.000000
									CHANNELS 3 Xrotation Yrotation Zrotation
									JOINT RightHandMiddle2
									{
										OFFSET -7.176498 0.000000 0.000000
										CHANNELS 3 Xrotation Yrotation Zrotation
										JOINT RightHandMiddle3
										{
											OFFSET -6.774902 0.000000 0.000000
											CHANNELS 3 Xrotation Yrotation Zrotation
											JOINT RightHandMiddle4
											{
												OFFSET -5.403328 0.000000 0.000000
												CHANNELS 3 Xrotation Yrotation Zrotation
												End Site
												{
													OFFSET 0.027702 5.403244 0.017457
												}
											}
										}
									}
								}
								JOINT RightHandRing1
								{
									OFFSET -22.908302 -0.839325 -6.020576
									CHANNELS 3 Xrotation Yrotation Zrotation
									JOINT RightHandRing2
									{
										OFFSET -6.337502 0.000000 0.000000
										CHANNELS 3 Xrotation Yrotation Zrotation
										JOINT RightHandRing3
										{
											OFFSET -5.779297 0.000000 0.000000
											CHANNELS 3 Xrotation Yrotation Zrotation
											JOINT RightHandRing4
											{
												OFFSET -4.965698 0.000000 0.000000
												CHANNELS 3 Xrotation Yrotation Zrotation
												End Site
												{
													OFFSET 0.000000 4.965668 0.016226
												}
											}
										}
									}
								}
								JOINT RightHandPinky1
								{
									OFFSET -20.037003 -1.530334 -10.950259
									CHANNELS 3 Xrotation Yrotation Zrotation
									JOINT RightHandPinky2
									{
										OFFSET -5.254700 0.000000 0.000000
										CHANNELS 3 Xrotation Yrotation Zrotation
										JOINT RightHandPinky3
										{
											OFFSET -4.810204 0.000000 0.000000
											CHANNELS 3 Xrotation Yrotation Zrotation
											JOINT RightHandPinky4
											{
												OFFSET -3.647202 0.000000 0.000000
												CHANNELS 3 Xrotation Yrotation Zrotation
												End Site
												{
													OFFSET 0.000000 3.647186 0.011917
												}
											}
										}
									}
								}
							}
						}
					}
				}
			}
		}
	}
	JOINT LeftUpLeg
	{
		OFFSET 15.427100 -6.655098 0.678600
		CHANNELS 3 Xrotation Yrotation Zrotation
		JOINT LeftLeg
		{
			OFFSET 4.081073 -39.591068 13.024000
			CHANNELS 3 Xrotation Yrotation Zrotation
			JOINT LeftFoot
			{
				OFFSET -4.081074 -37.707932 -15.979700
				CHANNELS 3 Xrotation Yrotation Zrotation
				JOINT LeftToeBase
				{
					OFFSET 5.346399 -15.068900 20.645000
					CHANNELS 3 Xrotation Yrotation Zrotation
					JOINT LeftToe_End
					{
						OFFSET 2.754700 0.931300 11.300900
						CHANNELS 3 Xrotation Yrotation Zrotation
						End Site
						{
							OFFSET 0.000000 11.669021 0.000000
						}
					}
				}
			}
		}
	}
	JOINT RightUpLeg
	{
		OFFSET -15.569500 -6.655098 0.678600
		CHANNELS 3 Xrotation Yrotation Zrotation
		JOINT RightLeg
		{
			OFFSET -4.081825 -39.591045 13.023800
			CHANNELS 3 Xrotation Yrotation Zrotation
			JOINT RightFoot
			{
				OFFSET 4.081824 -37.707954 -15.979600
				CHANNELS 3 Xrotation Yrotation Zrotation
				JOINT RightToeBase
				{
					OFFSET -5.346400 -15.068900 20.645000
					CHANNELS 3 Xrotation Yrotation Zrotation
					JOINT RightToe_End
					{
						OFFSET -2.754700 0.931300 11.300900
						CHANNELS 3 Xrotation Yrotation Zrotation
						End Site
						{
							OFFSET 0.000000 11.669021 0.000000
						}
					}
				}
			}
		}
	}
}
MOTION
Frames: 6
Frame Time: 0.033333
7.555123 89.981277 -0.848167 3.111011 32.071433 2.017253 3.612673 -5.456998 3.338627 9.608025 -9.777957 3.725989 9.899355 -9.455682 3.836428 -8.678264 -0.857436 -5.633572 -25.336968 -7.876823 3.233813 0.000000 0.000000 -0.000001 4.129244 -28.886455 -5.139132 -24.089071 -45.825512 -41.851492 -0.000143 -78.827719 -0.000138 9.781628 -14.009518 32.955004 -1.540041 3.690197 6.142352 3.939056 7.948701 0.746813 -0.579467 1.575005 2.538719 0.000000 0.000001 -0.000001 0.028659 0.628833 -5.218179 0.028665 0.628834 -5.218155 0.007158 0.314734 -2.609013 0.000003 0.000000 -0.000003 0.028475 0.626908 -5.202186 0.028821 0.630763 -5.234151 0.007182 0.314743 -2.608989 0.000001 0.000002 0.000004 0.028659 0.628833 -5.218180 0.028664 0.628834 -5.218156 0.007163 0.314740 -2.609007 0.000002 0.000002 0.000002 0.380277 4.667894 -4.724002 0.016255 -3.425700 -5.726839 0.007154 0.314742 -2.609000 -0.000003 0.000003 -0.000001 1.871407 8.914100 9.631385 -11.659449 -30.981021 51.813183 0.000019 55.344722 -0.000037 -9.377111 -0.543110 1.784620 -1.849253 -3.581798 -6.586117 4.637203 -8.634124 -0.225417 -1.273765 0.137312 -2.094856 -0.000001 0.000000 0.000004 0.005745 -0.283319 2.325404 0.005757 -0.283305 2.325367 0.001433 -0.141684 1.162704 0.000000 0.000001 -0.000000 0.005745 -0.283320 2.325403 0.005758 -0.283306 2.325367 0.001429 -0.141685 1.162714 -0.000001 -0.000000 -0.000001 0.005744 -0.283320 2.325404 0.005760 -0.283307 2.325367 0.001433 -0.141685 1.162707 0.000000 0.000001 0.000001 0.005745 -0.283319 2.325404 0.005757 -0.283303 2.325365 0.001432 -0.141682 1.162702 0.000000 -0.000000 0.000001 -25.503090 7.366673 19.182776 25.274623 7.775253 -0.101399 -15.735006 4.671443 -17.882678 0.000003 -0.000017 -0.000004 0.000001 0.000002 -0.000000 -38.366088 -11.707681 -31.154791 19.350179 -0.716424 9.223699 6.829670 -11.237108 2.364998 -0.613472 -0.000001 0.000000 0.000001 0.000000 0.000000 
7.046792 89.364693 1.506252 3.628609 32.879779 2.882222 4.188099 -4.955378 2.212071 9.476394 -9.680451 2.586038 9.583514 -9.565295 2.652235 -7.925218 -1.030184 -4.298066 -26.579898 -9.626860 3.744644 -0.000000 -0.000000 0.000000 4.145921 -28.875547 -5.601829 -22.741340 -45.555688 -40.468830 0.000052 -76.122294 0.000034 12.615592 -9.050589 29.322036 -1.540036 3.690196 6.142349 3.939058 7.948704 0.746816 -0.579468 1.574999 2.538723 0.000001 0.000002 0.000000 0.046069 0.796764 -6.617350 0.046048 0.796754 -6.617377 0.011542 0.399037 -3.308517 -0.000003 0.000000 -0.000002 0.045837 0.794849 -6.601375 0.046293 0.798687 -6.633351 0.011530 0.399042 -3.308523 -0.000002 -0.000001 -0.000001 0.046069 0.796764 -6.617349 0.046044 0.796757 -6.617373 0.011537 0.399032 -3.308527 0.000001 0.000002 0.000002 0.496542 4.826036 -6.129044 0.035165 -3.257946 -7.124714 0.011530 0.399041 -3.308526 -0.000001 -0.000001 -0.000001 1.742833 7.184234 10.043487 -10.678969 -29.933854 56.323710 0.000018 51.116596 -0.000015 -9.394559 -0.410648 0.982848 -1.849254 -3.581797 -6.586121 4.637203 -8.634125 -0.225416 -1.273763 0.137311 -2.094857 0.000001 -0.000001 -0.000003 0.006475 -0.300644 2.467791 0.008223 -0.338820 2.781376 0.002061 -0.169457 1.390682 0.000001 0.000000 0.000000 0.006475 -0.300645 2.467790 0.008225 -0.338819 2.781374 0.002058 -0.169463 1.390680 0.000000 0.000001 -0.000001 0.006474 -0.300645 2.467796 0.008226 -0.338820 2.781373 0.002061 -0.169460 1.390682 0.000001 -0.000000 -0.000001 0.006475 -0.300644 2.467790 0.008225 -0.338819 2.781374 0.002059 -0.169461 1.390681 0.000001 0.000001 -0.000001 -24.957252 7.568343 19.259450 24.573941 6.891776 -0.243558 -15.090393 4.652347 -19.157482 0.000001 -0.000014 -0.000004 0.000001 0.000001 0.000001 -38.776350 -10.121357 -31.766708 16.256462 -0.874781 7.679434 14.355835 -12.712532 6.262615 -0.507709 -0.000001 -0.000004 -0.000001 0.000000 0.000000 
6.038785 87.837555 4.194285 4.241890 33.661880 3.688742 4.584078 -4.630624 1.960723 9.504964 -9.478176 2.538873 9.531571 -9.448041 2.561915 -8.025012 -1.001020 -4.825963 -27.975319 -11.129427 3.109215 -0.000001 0.000000 -0.000000 4.106494 -28.576494 -6.860504 -22.853946 -45.200081 -40.163551 -0.000004 -72.900296 -0.000017 15.846281 -8.070070 27.296561 -1.540038 3.690201 6.142354 3.939053 7.948705 0.746811 -0.579473 1.575004 2.538721 0.000000 0.000001 0.000001 0.068835 0.973038 -8.090416 0.068803 0.973021 -8.090440 0.017217 0.487713 -4.044938 0.000002 -0.000000 -0.000001 0.068558 0.971117 -8.074445 0.069094 0.974939 -8.106416 0.017208 0.487718 -4.044932 0.000001 -0.000001 -0.000003 0.068835 0.973038 -8.090415 0.068804 0.973021 -8.090441 0.017213 0.487711 -4.044935 0.000001 -0.000000 -0.000001 0.623164 4.989353 -7.608856 0.059504 -3.081873 -8.596081 0.017220 0.487721 -4.044929 -0.000001 -0.000001 -0.000003 1.599696 6.275079 9.752318 -9.354133 -29.395211 59.475846 -0.000003 48.886618 -0.000001 -9.415081 -0.350877 0.621997 -1.849254 -3.581796 -6.586121 4.637204 -8.634124 -0.225420 -1.273765 0.137310 -2.094860 -0.000000 -0.000001 0.000004 0.010202 -0.377388 3.098303 0.013802 -0.438740 3.602567 0.003449 -0.219479 1.801270 0.000000 -0.000000 -0.000000 0.010202 -0.377388 3.098304 0.013802 -0.438738 3.602567 0.003451 -0.219478 1.801268 0.000001 0.000001 0.000001 0.010203 -0.377388 3.098306 0.013803 -0.438739 3.602571 0.003450 -0.219481 1.801271 -0.000001 0.000001 -0.000001 0.010202 -0.377388 3.098305 0.013803 -0.438740 3.602569 0.003448 -0.219480 1.801271 -0.000001 -0.000001 -0.000001 -25.374622 7.723855 20.444378 25.103092 5.516066 -0.909957 -14.340949 4.749609 -20.698258 0.000000 -0.000014 -0.000003 -0.000001 -0.000002 -0.000001 -40.914308 -8.499075 -32.478786 18.509046 -0.654611 6.639762 19.092194 -12.865840 8.621443 -0.388577 -0.000002 -0.000000 -0.000000 0.000000 0.000000 
4.751757 85.821747 7.011889 5.172946 34.036544 4.217961 4.808282 -4.471778 2.064529 9.653884 -9.210401 3.057172 9.662043 -9.202403 3.054502 -8.984925 -0.786226 -6.073154 -29.447643 -11.744020 1.859155 -0.000000 -0.000000 0.000000 3.943476 -27.534709 -8.452377 -23.226567 -44.722153 -40.273637 -0.000030 -70.594499 -0.000021 17.956309 -9.888111 27.198770 -1.540042 3.690199 6.142351 3.939059 7.948702 0.746813 -0.579470 1.575001 2.538723 0.000000 0.000001 0.000000 0.096708 1.152310 -9.594547 0.096709 1.152321 -9.594545 0.024219 0.578190 -4.796787 0.000003 -0.000000 -0.000001 0.096403 1.150427 -9.578553 0.097032 1.154209 -9.610545 0.024218 0.578185 -4.796789 0.000001 -0.000001 -0.000002 0.096708 1.152310 -9.594546 0.096709 1.152319 -9.594545 0.024218 0.578187 -4.796787 0.000004 -0.000001 -0.000000 0.756786 5.152711 -9.120438 0.089011 -2.902839 -10.098140 0.024218 0.578181 -4.796784 -0.000001 -0.000001 -0.000001 1.528015 6.815772 9.085107 -8.900472 -28.372654 61.174022 0.000002 46.812395 0.000002 -9.423615 -0.368743 0.724209 -1.849254 -3.581798 -6.586118 4.637203 -8.634123 -0.225422 -1.273765 0.137310 -2.094861 0.000000 0.000000 0.000002 0.017997 -0.501080 4.115341 0.023558 -0.573017 4.707388 0.005890 -0.286749 2.353651 0.000000 -0.000002 -0.000001 0.017997 -0.501080 4.115338 0.023559 -0.573018 4.707389 0.005890 -0.286751 2.353654 0.000001 0.000002 0.000001 0.018001 -0.501079 4.115322 0.023555 -0.573019 4.707407 0.005890 -0.286753 2.353652 0.000000 -0.000000 -0.000000 0.017997 -0.501080 4.115339 0.023558 -0.573019 4.707388 0.005890 -0.286749 2.353651 0.000000 -0.000001 -0.000001 -26.154994 7.996265 22.690423 26.185523 4.592740 -1.972133 -13.609295 4.970943 -22.597577 0.000002 -0.000016 -0.000004 0.000001 0.000001 -0.000001 -44.825948 -6.701558 -33.344857 26.093628 -0.878474 6.642134 15.721485 -11.982865 7.958297 -0.283891 0.000002 -0.000002 0.000000 -0.000000 -0.000000 
3.473768 83.948578 9.668241 6.499348 33.613249 4.472413 4.837501 -4.432453 2.017193 9.765371 -8.840304 3.446736 9.781058 -8.824792 3.441560 -10.376913 -0.512312 -6.806322 -30.837659 -11.168551 0.504034 0.000001 -0.000000 0.000000 3.711592 -25.828584 -9.588449 -22.566301 -44.026098 -40.166802 0.000029 -69.928167 0.000032 18.300148 -11.524016 28.053281 -1.540041 3.690193 6.142348 3.939051 7.948704 0.746814 -0.579469 1.575003 2.538724 -0.000003 -0.000001 0.000000 0.129039 1.329384 -11.086847 0.129030 1.329393 -11.086835 0.032322 0.667815 -5.542672 -0.000002 0.000001 -0.000001 0.128663 1.327498 -11.070856 0.129406 1.331287 -11.102828 0.032330 0.667821 -5.542670 -0.000001 -0.000003 -0.000002 0.129039 1.329384 -11.086845 0.129030 1.329391 -11.086833 0.032326 0.667816 -5.542678 0.000001 -0.000000 0.000001 0.893598 5.311206 -10.620726 0.122923 -2.726047 -11.588068 0.032324 0.667826 -5.542672 0.000001 0.000002 0.000001 1.666647 9.055802 8.532763 -9.470589 -27.045022 61.724167 -0.000006 44.505239 -0.000001 -9.400144 -0.433593 1.110845 -1.849252 -3.581798 -6.586121 4.637201 -8.634123 -0.225419 -1.273763 0.137310 -2.094860 -0.000000 0.000000 0.000000 0.031186 -0.659164 5.417166 0.038433 -0.731563 6.014317 0.009612 -0.366284 3.007040 0.000000 0.000000 -0.000000 0.031186 -0.659164 5.417166 0.038433 -0.731564 6.014315 0.009614 -0.366286 3.007033 -0.000001 -0.000001 0.000000 0.031189 -0.659162 5.417148 0.038430 -0.731564 6.014332 0.009613 -0.366283 3.007040 0.000000 0.000000 -0.000000 0.031186 -0.659164 5.417166 0.038433 -0.731564 6.014315 0.009613 -0.366284 3.007040 0.000000 0.000001 0.000000 -26.400310 8.660950 25.419980 26.844066 4.580493 -3.200882 -12.995800 5.728184 -24.666791 0.000001 -0.000014 -0.000003 -0.000001 -0.000001 -0.000000 -48.891003 -5.263725 -33.910697 33.047201 -1.347769 7.203271 11.321532 -10.260174 6.288711 -0.201874 -0.000003 -0.000001 0.000000 -0.000000 0.000000 
2.349185 82.484039 12.148429 8.063756 32.406662 4.611347 4.805022 -4.358525 1.498428 9.756171 -8.301972 3.202253 9.770627 -8.286221 3.199813 -11.703066 -0.389377 -6.358361 -32.047692 -10.070689 -0.512072 0.000000 0.000000 0.000000 3.489435 -24.154351 -9.721360 -20.545351 -43.156130 -39.655177 0.000046 -69.954381 0.000057 17.832304 -10.945695 29.044307 -1.540041 3.690198 6.142350 3.939050 7.948704 0.746813 -0.579466 1.575002 2.538723 -0.000003 -0.000001 0.000000 0.164497 1.499102 -12.524440 0.164520 1.499106 -12.524432 0.041236 0.754045 -6.261147 0.000001 -0.000000 0.000001 0.164091 1.497226 -12.508446 0.164929 1.500979 -12.540431 0.041250 0.754056 -6.261143 -0.000001 -0.000001 0.000002 0.164497 1.499102 -12.524438 0.164520 1.499105 -12.524428 0.041241 0.754046 -6.261143 0.000001 0.000000 0.000002 1.029297 5.460492 -12.066532 0.159925 -2.556677 -13.023082 0.041245 0.754059 -6.261140 0.000001 -0.000001 0.000001 2.020962 12.304153 8.377235 -10.856470 -25.842156 62.014634 0.000000 41.606231 -0.000003 -9.338950 -0.482466 1.436093 -1.849253 -3.581798 -6.586119 4.637204 -8.634125 -0.225419 -1.273763 0.137310 -2.094857 0.000000 0.000000 0.000001 0.050602 -0.839068 6.902234 0.058810 -0.904291 7.441794 0.014717 -0.453100 3.720665 0.000000 0.000001 -0.000000 0.050602 -0.839068 6.902234 0.058810 -0.904292 7.441792 0.014716 -0.453102 3.720672 0.000000 0.000001 0.000000 0.050601 -0.839068 6.902235 0.058810 -0.904292 7.441791 0.014717 -0.453100 3.720664 0.000000 0.000001 -0.000000 0.050602 -0.839068 6.902234 0.058810 -0.904293 7.441792 0.014717 -0.453100 3.720664 0.000000 0.000001 -0.000000 -25.684170 9.720262 27.919168 26.593275 4.797774 -4.325395 -12.593204 7.673844 -26.627339 0.000002 -0.000014 -0.000003 0.000001 0.000002 0.000000 -52.429150 -4.160286 -33.783301 38.481467 -1.641207 7.836202 7.500711 -8.346377 4.437591 0.000003 0.000006 0.000002 0.000000 0.000000 0.000000 
